<?xml version="1.0" encoding="UTF-8" standalone="no"?>
<svg
   xmlns:dc="http://purl.org/dc/elements/1.1/"
   xmlns:cc="http://creativecommons.org/ns#"
   xmlns:rdf="http://www.w3.org/1999/02/22-rdf-syntax-ns#"
   xmlns:svg="http://www.w3.org/2000/svg"
   xmlns="http://www.w3.org/2000/svg"
   viewBox="0 0 649.33331 181.33333"
   height="181.33333"
   width="649.33331"
   xml:space="preserve"
   id="svg2"
   version="1.1"><metadata
     id="metadata8"><rdf:RDF><cc:Work
         rdf:about=""><dc:format>image/svg+xml</dc:format><dc:type
           rdf:resource="http://purl.org/dc/dcmitype/StillImage" /><dc:title></dc:title></cc:Work></rdf:RDF></metadata><defs
     id="defs6"><clipPath
       id="clipPath18"
       clipPathUnits="userSpaceOnUse"><path
         id="path16"
         d="M 0,136 H 487 V 0 H 0 Z" /></clipPath></defs><g
     transform="matrix(1.3333333,0,0,-1.3333333,0,181.33333)"
     id="g10"><g
       id="g12"><g
         clip-path="url(#clipPath18)"
         id="g14"><g
           transform="translate(456.5,38.5664)"
           id="g20"><path
             id="path22"
             style="fill:#231f20;fill-opacity:1;fill-rule:nonzero;stroke:none"
             d="m 0,0 v -18.49 h -13.516 c -6.097,0 -10.157,3.609 -10.157,9.246 0,5.629 3.837,9.244 10.157,9.244 z" /></g><g
           transform="translate(53.188,30.6846)"
           id="g24"><path
             id="path26"
             style="fill:#231f20;fill-opacity:1;fill-rule:evenodd;stroke:none"
             d="m 0,0 v 24.175 h 12.842 c 22.346,0 32.268,10.578 32.268,27.313 0,15.991 -10.778,26.239 -33.14,26.239 H -25.485 V 0 Z m 0,42.316 v 17.268 h 7.225 c 5.402,0 13.596,-0.964 13.596,-8.21 0,-6.685 -4.307,-9.058 -10.249,-9.058 z" /></g><path
           id="path28"
           style="fill:#231f20;fill-opacity:1;fill-rule:nonzero;stroke:none"
           d="M 121.929,108.412 H 99.484 V 30.685 h 22.445 z" /><g
           transform="translate(155.043,41.7959)"
           id="g30"><path
             id="path32"
             style="fill:#231f20;fill-opacity:1;fill-rule:evenodd;stroke:none"
             d="m 0,0 c -4.426,0 -7.122,1.952 -7.122,4.766 0,7.332 9.71,5.602 17.048,9.165 C 10.469,6.163 7.876,0 0,0 m 35.411,-11.111 v 1.079 c -2.923,2.377 -3.025,3.989 -3.025,7.224 v 26.45 c 0,13.503 -1.623,23.429 -28.386,23.429 -22.362,0 -30.886,-7.019 -30.886,-18.993 h 21.588 c 0.548,4.857 4.754,5.5 7.886,5.5 2.377,0 7.338,-0.545 7.338,-4.642 0,-10.579 -40.262,1.078 -40.262,-24.611 0,-11.763 9.498,-17.053 20.185,-17.053 8.421,0 14.901,1.725 21.263,7.661 l 1.088,-6.044 z" /></g><g
           transform="translate(229.8574,46.7715)"
           id="g34"><path
             id="path36"
             style="fill:#231f20;fill-opacity:1;fill-rule:nonzero;stroke:none"
             d="m 0,0 h -3.567 c -6.261,0 -7.02,1.838 -7.02,7.021 V 27.523 H 0.206 V 40.478 H -10.587 V 58.076 H -32.713 V 40.478 h -8.32 V 27.523 h 7.996 V 3.883 c 0,-19.545 3.563,-21.586 33.037,-19.97 z" /></g><g
           transform="translate(232.3184,58.3203)"
           id="g38"><path
             id="path40"
             style="fill:#231f20;fill-opacity:1;fill-rule:evenodd;stroke:none"
             d="m 0,0 c 0,-19.332 14.027,-29.252 32.164,-29.252 18.141,0 32.169,9.709 32.169,30.439 0,17.595 -12.301,29.36 -32.273,29.36 C 12.953,30.547 0,19.646 0,0 m 32.389,15.436 c 5.824,0.323 9.496,-5.946 9.496,-14.249 0,-10.691 -3.672,-15.337 -9.721,-15.337 -5.715,0 -9.716,4.646 -9.716,15.337 0,6.372 2.27,14.249 9.941,14.249" /></g><g
           transform="translate(299.0332,30.6846)"
           id="g42"><path
             id="path44"
             style="fill:#231f20;fill-opacity:1;fill-rule:nonzero;stroke:none"
             d="m 0,0 h 22.452 v 28.823 c 0,7.229 1.838,11.655 8.748,11.655 6.368,0 7.882,-4.96 7.882,-10.583 V 0 h 22.454 v 33.896 c 0,15.542 -7.019,24.287 -21.921,24.287 -8.518,0 -14.027,-3.671 -19.104,-10.466 v 8.848 H 0 Z" /></g><path
           id="path46"
           style="fill:#231f20;fill-opacity:1;fill-rule:evenodd;stroke:none"
           d="m 365.865,94.489 h 22.443 v 15.965 H 365.865 Z M 388.309,87.25 H 365.866 V 30.685 h 22.443 z" /><g
           transform="translate(392.165,58.3203)"
           id="g48"><path
             id="path50"
             style="fill:#231f20;fill-opacity:1;fill-rule:evenodd;stroke:none"
             d="m 0,0 c 0,-19.332 14.028,-29.252 32.171,-29.252 18.142,0 32.164,9.709 32.164,30.439 0,17.595 -12.31,29.36 -32.28,29.36 C 12.95,30.547 0,19.646 0,0 m 32.374,15.436 c 5.836,0.323 9.507,-5.946 9.507,-14.249 0,-10.691 -3.671,-15.337 -9.71,-15.337 -5.721,0 -9.717,4.646 -9.717,15.337 0,6.372 2.266,14.249 9.92,14.249" /></g></g></g></g></svg>